<svg xmlns="http://www.w3.org/2000/svg" viewBox="0 0 512 512" role="img" aria-labelledby="title desc">
  <title id="title">TikTrack app icon</title>
  <desc id="desc">Rounded TikTrack icon with a purple lightning mark.</desc>
  <defs>
    <linearGradient id="bg" x1="86" y1="34" x2="426" y2="478" gradientUnits="userSpaceOnUse">
      <stop offset="0" stop-color="#06b6d4"/>
      <stop offset="0.44" stop-color="#4f46e5"/>
      <stop offset="1" stop-color="#8b5cf6"/>
    </linearGradient>
    <linearGradient id="bolt" x1="176" y1="90" x2="344" y2="422" gradientUnits="userSpaceOnUse">
      <stop offset="0" stop-color="#ffffff"/>
      <stop offset="0.52" stop-color="#e0f2fe"/>
      <stop offset="1" stop-color="#bfdbfe"/>
    </linearGradient>
    <filter id="shadow" x="96" y="56" width="320" height="420" color-interpolation-filters="sRGB" filterUnits="userSpaceOnUse">
      <feDropShadow dx="0" dy="22" stdDeviation="22" flood-color="#111827" flood-opacity="0.32"/>
    </filter>
  </defs>
  <rect width="512" height="512" rx="118" fill="url(#bg)"/>
  <circle cx="138" cy="118" r="84" fill="#ffffff" opacity="0.12"/>
  <circle cx="408" cy="402" r="118" fill="#111827" opacity="0.13"/>
  <path fill="#ffffff" opacity="0.16" d="M128 384c72 38 178 41 256-12 18-12 39 12 25 29-56 68-176 84-268 33-24-13-37-25-28-39 4-7 9-11 15-11z"/>
  <g filter="url(#shadow)">
    <path fill="url(#bolt)" d="M282 72c13 0 22 13 17 25l-48 115h102c16 0 24 20 12 31L213 427c-13 15-37 2-31-17l42-132h-72c-14 0-23-14-17-27l79-168c3-7 10-11 17-11h51z"/>
    <path fill="#38bdf8" opacity="0.95" d="M247 212h106c16 0 24 20 12 31L213 427c-8 9-20 8-27 2l69-151h-31l23-66z"/>
  </g>
  <path fill="none" stroke="#ffffff" stroke-opacity="0.24" stroke-width="12" d="M256 48c142 0 208 66 208 208s-66 208-208 208S48 398 48 256 114 48 256 48z"/>
</svg>
