<svg xmlns="http://www.w3.org/2000/svg" viewBox="0 0 64 64" role="img" aria-label="TikTrack">
  <defs>
    <linearGradient id="bg" x1="9" y1="7" x2="55" y2="58" gradientUnits="userSpaceOnUse">
      <stop offset="0" stop-color="#22d3ee"/>
      <stop offset="0.5" stop-color="#2563eb"/>
      <stop offset="1" stop-color="#7c3aed"/>
    </linearGradient>
    <linearGradient id="track" x1="18" y1="16" x2="46" y2="49" gradientUnits="userSpaceOnUse">
      <stop offset="0" stop-color="#ffffff"/>
      <stop offset="1" stop-color="#dff7ff"/>
    </linearGradient>
  </defs>
  <rect width="64" height="64" rx="15" fill="url(#bg)"/>
  <path fill="url(#track)" d="M18 16h28a4 4 0 0 1 4 4v4a4 4 0 0 1-4 4h-8v20a4 4 0 0 1-4 4h-4a4 4 0 0 1-4-4V28h-8a4 4 0 0 1-4-4v-4a4 4 0 0 1 4-4z"/>
  <path fill="none" stroke="#fff" stroke-linecap="round" stroke-width="4" opacity=".35" d="M18 44c8 5 20 6 29 1"/>
</svg>
